# xmcd
#
# Track frame offsets: 
#        150
#        31762
#        55089
#        82304
#        99338
#        117766
#        142712
#        162045
#        185241
#        210376
#
# Disc length: 3059 seconds
#
# Revision: 0
# Processed by: cddbd v1.5.2PL0 Copyright (c) Steve Scherf et al.
# Submitted via: ExactAudioCopy v1.0b3
#
DISCID=7a0bf10a
DTITLE=Various Artist - Tinh ca Chau Ky 2
DYEAR=2008
DGENRE=
TTITLE0=Hoang Oanh - Sao chua thay hoi am
TTITLE1=Huong Lan, Tuan Vu - Hoi am
TTITLE2=Thai Chau - Xin lam nguoi tinh co don
TTITLE3=Thanh Thuy - Chieu tien biet
TTITLE4=Tuan Vu - Duoc tin em lay chong
TTITLE5=Luu My Linh - Em khong buon nua chi oi
TTITLE6=Che Linh, Thanh Tuyen - Con duong xua em di
TTITLE7=Thai Chau - Nho
TTITLE8=Huong Lan - Huong Giang con toi cho
TTITLE9=Che Linh - Giua long dat Me
EXTD=
EXTT0=
EXTT1=
EXTT2=
EXTT3=
EXTT4=
EXTT5=
EXTT6=
EXTT7=
EXTT8=
EXTT9=
PLAYORDER=
